<?xml version="1.0" encoding="utf-8"?>
<!-- Generator: Adobe Illustrator 16.0.3, SVG Export Plug-In . SVG Version: 6.00 Build 0)  -->
<!DOCTYPE svg PUBLIC "-//W3C//DTD SVG 1.1//EN" "http://www.w3.org/Graphics/SVG/1.1/DTD/svg11.dtd">
<svg version="1.1" id="Layer_1" xmlns="http://www.w3.org/2000/svg" xmlns:xlink="http://www.w3.org/1999/xlink" x="0px" y="0px"
	 width="512px" height="512px" viewBox="0 0 512 512" enable-background="new 0 0 512 512" xml:space="preserve">
<g>
	<g>
		<g>
			<circle fill-rule="evenodd" clip-rule="evenodd" fill="#FABB9B" cx="256" cy="256" r="255"/>
		</g>
	</g>
	<g>
		<g>
			<rect x="126.076" y="84.038" fill-rule="evenodd" clip-rule="evenodd" fill="#D92949" width="197.343" height="274.932"/>
		</g>
	</g>
	<g>
		<g>
			<polygon fill-rule="evenodd" clip-rule="evenodd" fill="#E6E6E6" points="141.688,99.634 141.688,343.373 283.037,343.373 
				307.809,318.609 307.809,99.634 			"/>
		</g>
	</g>
	<g>
		<g>
			<path fill-rule="evenodd" clip-rule="evenodd" fill="#A11805" d="M239.396,84.038c0.136-0.813,0.211-1.626,0.211-2.484
				c0-8.204-6.654-14.858-14.858-14.858c-8.212,0-14.874,6.654-14.874,14.858c0,0.858,0.083,1.671,0.219,2.484H191.72v32.2h66.049
				v-32.2H239.396z"/>
		</g>
	</g>
	<g>
		<g>
			<path fill-rule="evenodd" clip-rule="evenodd" fill="#FFFFFF" d="M224.748,75.984c-3.65,0-6.609,2.95-6.609,6.608
				c0,3.644,2.959,6.594,6.609,6.594c3.643,0,6.594-2.95,6.594-6.594C231.342,78.935,228.391,75.984,224.748,75.984z"/>
		</g>
	</g>
	<g>
		<g>
			<path fill-rule="evenodd" clip-rule="evenodd" fill="#F24B6A" d="M200.188,276.819h89.992v-4.124h-89.992V276.819z
				 M200.188,228.104h89.992v-4.124h-89.992V228.104z M200.188,145.143v4.124h89.992v-4.124H200.188z M200.188,188.89h89.992v-4.125
				h-89.992V188.89z"/>
		</g>
	</g>
	<g>
		<g>
			<polygon fill="#F24B6A" points="184.802,137.524 175.4,152.85 168.183,146.075 165.548,148.876 174.497,157.275 176.214,158.887 
				177.456,156.869 188.084,139.527 			"/>
		</g>
	</g>
	<g>
		<g>
			<polygon fill="#F24B6A" points="184.802,177.162 175.4,192.487 168.183,185.713 165.548,188.513 174.497,196.897 
				176.214,198.523 177.456,196.507 188.084,179.164 			"/>
		</g>
	</g>
	<g>
		<g>
			<polygon fill="#F24B6A" points="184.802,216.378 175.4,231.703 168.183,224.929 165.548,227.729 174.497,236.113 
				176.214,237.725 177.456,235.707 188.084,218.38 			"/>
		</g>
	</g>
	<g>
		<g>
			<polygon fill="#F24B6A" points="184.802,265.093 175.4,280.418 168.183,273.644 165.548,276.443 174.497,284.828 
				176.214,286.439 177.456,284.438 188.084,267.095 			"/>
		</g>
	</g>
	<g>
		<g>
			<path fill-rule="evenodd" clip-rule="evenodd" fill="#400101" d="M372.488,228.526H223.355c-7.384,0-13.429,6.052-13.429,13.429
				v137.111c0,7.392,6.045,13.443,13.429,13.443h149.133c7.384,0,13.428-6.052,13.428-13.443V241.955
				C385.916,234.578,379.872,228.526,372.488,228.526z"/>
		</g>
	</g>
	<g>
		<g>
			<rect x="222.647" y="241.955" fill-rule="evenodd" clip-rule="evenodd" fill="#EBE3CB" width="76.332" height="38.177"/>
		</g>
	</g>
	<g>
		<g>
			<path fill-rule="evenodd" clip-rule="evenodd" fill="#EBE3CB" d="M222.919,340.106h21.655v-21.647h-21.655V340.106z
				 M249.986,368.725h21.654v-21.663h-21.654V368.725z M222.919,311.504h21.655v-21.662h-21.655V311.504z M222.919,368.725h21.655
				v-21.663h-21.655V368.725z M277.053,340.106h21.663v-21.647h-21.663V340.106z M277.053,368.725h21.663v-21.663h-21.663V368.725z
				 M277.053,289.842v21.662h21.663v-21.662H277.053z M249.986,311.504h21.654v-21.662h-21.654V311.504z M249.986,340.106h21.654
				v-21.647h-21.654V340.106z"/>
		</g>
	</g>
	<g>
		<g>
			<polygon fill-rule="evenodd" clip-rule="evenodd" fill="#EBE3CB" points="249.098,393.97 249.098,436.212 279.048,466.154 
				346.746,466.154 346.746,393.97 			"/>
		</g>
	</g>
	<g>
		<g>
			<rect x="236.49" y="388.972" fill-rule="evenodd" clip-rule="evenodd" fill="#A6430A" width="122.863" height="6.91"/>
		</g>
	</g>
	<g>
		<g>
			<path fill="#D92949" d="M258.514,260.727l-0.692-0.256c-0.753-0.256-1.279-0.542-1.565-0.812
				c-0.294-0.271-0.437-0.603-0.437-0.979c0-0.347,0.105-0.617,0.301-0.828c0.203-0.211,0.467-0.316,0.791-0.316
				c0.654,0,1.016,0.422,1.091,1.265h3.116v-0.195c0-0.467-0.06-0.889-0.195-1.25c-0.12-0.346-0.331-0.723-0.633-1.113
				c-0.278-0.347-0.571-0.617-0.851-0.798c-0.285-0.181-0.67-0.316-1.129-0.437v-2.032h-2.717v2.032
				c-1.023,0.271-1.807,0.768-2.363,1.46c-0.558,0.707-0.836,1.565-0.836,2.589c0,1.837,1.046,3.132,3.131,3.914l0.67,0.241
				c0.67,0.256,1.145,0.497,1.431,0.783c0.278,0.271,0.421,0.587,0.421,0.979c0,0.346-0.112,0.632-0.338,0.857
				c-0.219,0.226-0.489,0.347-0.82,0.347c-0.708,0-1.092-0.482-1.183-1.431h-3.417v0.227c0,0.376,0.075,0.798,0.241,1.234
				c0.158,0.437,0.376,0.827,0.647,1.159c0.293,0.376,0.624,0.662,0.985,0.873c0.361,0.21,0.844,0.376,1.431,0.496v2.018h2.717
				v-2.107c0.979-0.316,1.754-0.843,2.318-1.565s0.843-1.551,0.843-2.484c0-0.858-0.263-1.641-0.79-2.333
				C260.178,261.57,259.447,261.059,258.514,260.727z M286.801,257.581c-0.286-0.708-0.692-1.325-1.212-1.837
				s-1.145-0.903-1.859-1.204c-0.715-0.286-1.506-0.437-2.363-0.437c-0.836,0-1.604,0.15-2.296,0.437
				c-0.7,0.271-1.31,0.662-1.829,1.144c-0.52,0.497-0.918,1.084-1.212,1.762c-0.286,0.662-0.429,1.4-0.429,2.183
				c0,0.737,0.12,1.431,0.368,2.062c0.241,0.632,0.58,1.174,1.009,1.626c0.43,0.467,0.941,0.828,1.528,1.084
				c0.579,0.256,1.227,0.392,1.927,0.392c0.181,0,0.347-0.016,0.467-0.016c0.128-0.03,0.309-0.061,0.526-0.136l-3.334,4.606h4.312
				l3.786-5.886c0.384-0.587,0.655-1.129,0.806-1.641c0.158-0.512,0.241-1.1,0.241-1.807
				C287.237,259.071,287.087,258.288,286.801,257.581z M282.834,260.878c-0.384,0.391-0.866,0.571-1.431,0.571
				c-0.557,0-1.038-0.195-1.452-0.587c-0.392-0.392-0.595-0.873-0.595-1.445c0-0.015,0.008-0.03,0.015-0.045
				c0.008-0.015,0.008-0.03,0.008-0.061c0.015-0.256,0.083-0.496,0.203-0.723c0.12-0.226,0.264-0.421,0.444-0.587
				c0.181-0.181,0.384-0.316,0.625-0.406c0.24-0.09,0.481-0.15,0.729-0.15c0.286,0,0.55,0.061,0.798,0.165
				c0.256,0.105,0.475,0.241,0.655,0.422c0.195,0.181,0.339,0.392,0.444,0.632c0.098,0.257,0.15,0.513,0.15,0.783
				C283.429,260.004,283.232,260.486,282.834,260.878z M273.35,255.744c-0.52-0.512-1.137-0.903-1.852-1.204
				c-0.723-0.286-1.521-0.437-2.371-0.437c-0.835,0-1.596,0.15-2.296,0.437c-0.707,0.271-1.302,0.662-1.821,1.144
				c-0.52,0.497-0.926,1.084-1.212,1.762c-0.286,0.662-0.437,1.4-0.437,2.183c0,0.737,0.12,1.431,0.369,2.062
				c0.24,0.632,0.579,1.174,1.009,1.626c0.421,0.467,0.94,0.828,1.527,1.084s1.228,0.392,1.927,0.392
				c0.181,0,0.354-0.016,0.475-0.016c0.128-0.03,0.301-0.061,0.527-0.136l-3.343,4.606h4.321l3.778-5.886
				c0.384-0.587,0.654-1.129,0.812-1.641s0.233-1.1,0.233-1.807c0-0.843-0.143-1.626-0.437-2.333
				C274.275,256.873,273.869,256.256,273.35,255.744z M270.603,260.878c-0.392,0.391-0.866,0.571-1.431,0.571
				s-1.046-0.195-1.444-0.587c-0.407-0.392-0.603-0.873-0.603-1.445v-0.045c0.015-0.015,0.022-0.03,0.022-0.061
				c0.015-0.256,0.083-0.496,0.195-0.723c0.121-0.226,0.271-0.421,0.444-0.587c0.181-0.181,0.392-0.316,0.617-0.406
				c0.249-0.09,0.489-0.15,0.745-0.15c0.278,0,0.55,0.061,0.798,0.165c0.256,0.105,0.475,0.241,0.655,0.422
				c0.188,0.181,0.339,0.392,0.437,0.632c0.105,0.257,0.158,0.513,0.158,0.783C271.197,260.004,271.001,260.486,270.603,260.878z"/>
		</g>
	</g>
	<g>
		<g>
			<polygon fill-rule="evenodd" clip-rule="evenodd" fill="#DD966D" points="249.098,436.212 279.048,466.154 279.048,436.212 			
				"/>
		</g>
	</g>
	<g>
		<g>
			<rect x="312.039" y="241.955" fill-rule="evenodd" clip-rule="evenodd" fill="#A6430A" width="54.284" height="127.101"/>
		</g>
	</g>
	<g>
		<g>
			<rect x="330.081" y="246.185" fill-rule="evenodd" clip-rule="evenodd" fill="#F28705" width="18.2" height="118.641"/>
		</g>
	</g>
	<g>
		<g>
			<rect x="337.374" y="238.507" fill-rule="evenodd" clip-rule="evenodd" fill="#A6430A" width="3.613" height="133.996"/>
		</g>
	</g>
</g>
</svg>
