<?xml version="1.0" encoding="utf-8"?>
<!-- Generator: Adobe Illustrator 16.0.3, SVG Export Plug-In . SVG Version: 6.00 Build 0)  -->
<!DOCTYPE svg PUBLIC "-//W3C//DTD SVG 1.1//EN" "http://www.w3.org/Graphics/SVG/1.1/DTD/svg11.dtd">
<svg version="1.1" id="Layer_1" xmlns="http://www.w3.org/2000/svg" xmlns:xlink="http://www.w3.org/1999/xlink" x="0px" y="0px"
	 width="512px" height="512px" viewBox="0 0 512 512" enable-background="new 0 0 512 512" xml:space="preserve">
<g>
	<g>
		<g>
			<path fill-rule="evenodd" clip-rule="evenodd" fill="#8DCECE" d="M256,1C115.17,1,1,115.166,1,256s114.17,255,255,255
				c140.823,0,255-114.166,255-255S396.823,1,256,1z"/>
		</g>
	</g>
	<g>
		<g>
			<path fill-rule="evenodd" clip-rule="evenodd" fill="#F2F0D5" d="M341.657,175.992c-2.86-1.521-6.443-0.425-7.964,2.435
				l-70.972,133.574V175.785c0-3.24-2.657-5.89-5.894-5.89s-5.901,2.65-5.901,5.89v139.329l-72.613-136.687
				c-1.521-2.86-5.103-3.956-7.979-2.435c-2.853,1.517-3.951,5.111-2.431,7.971l82.157,154.612c0.24,0.455,0.542,0.873,0.865,1.234
				v11.061c0,3.236,2.665,5.89,5.901,5.89s5.894-2.653,5.894-5.89v-13.767l81.374-153.141
				C345.616,181.103,344.518,177.508,341.657,175.992z"/>
		</g>
	</g>
	<g>
		<g>
			<path fill-rule="evenodd" clip-rule="evenodd" fill="#F2295F" d="M353.392,149.29c-9.936-44.643-49.761-78.018-97.392-78.018
				s-87.456,33.375-97.392,78.018c-1.559,6.997-2.387,14.283-2.387,21.757c0,8.242,1.009,16.243,2.891,23.895
				c5.382-1.979,9.876-5.818,12.683-10.752c4.17,7.309,12.036,12.239,21.054,12.239c9.01,0,16.875-4.93,21.045-12.239
				c4.178,7.309,12.036,12.239,21.054,12.239c9.017,0,16.883-4.93,21.053-12.239c4.17,7.309,12.036,12.239,21.053,12.239
				c9.018,0,16.884-4.93,21.054-12.239c4.17,7.309,12.035,12.239,21.045,12.239c9.018,0,16.884-4.93,21.054-12.239
				c2.814,4.926,7.301,8.773,12.683,10.752c1.874-7.651,2.891-15.652,2.891-23.895C355.778,163.572,354.95,156.293,353.392,149.29z"
				/>
		</g>
	</g>
	<g>
		<g>
			<path fill-rule="evenodd" clip-rule="evenodd" fill="#D92949" d="M353.392,149.29c-9.936-44.643-49.761-78.018-97.392-78.018
				c-28.693,0-54.548,12.107-72.748,31.493c-8.973,17.444-14.031,37.213-14.031,58.169c0,8.148,0.775,16.119,2.236,23.834
				c0.112-0.185,0.226-0.376,0.338-0.58c4.17,7.309,12.036,12.239,21.054,12.239c9.01,0,16.875-4.93,21.045-12.239
				c4.178,7.309,12.036,12.239,21.054,12.239c9.017,0,16.883-4.93,21.053-12.239c4.17,7.309,12.036,12.239,21.053,12.239
				c9.018,0,16.884-4.93,21.054-12.239c4.17,7.309,12.035,12.239,21.045,12.239c9.018,0,16.884-4.93,21.054-12.239
				c2.814,4.926,7.301,8.773,12.683,10.752c1.874-7.651,2.891-15.652,2.891-23.895C355.778,163.572,354.95,156.293,353.392,149.29z"
				/>
		</g>
	</g>
	<g>
		<g>
			<path fill-rule="evenodd" clip-rule="evenodd" fill="#D92949" d="M353.392,149.29c-9.936-44.643-49.761-78.018-97.392-78.018
				c-2.288,0-4.562,0.079-6.819,0.23c-22.694,22.995-36.702,54.571-36.702,89.432c0,8.517,0.836,16.834,2.432,24.88
				c4.358,6.398,11.697,10.613,20.037,10.613c9.017,0,16.883-4.93,21.053-12.239c4.17,7.309,12.036,12.239,21.053,12.239
				c9.018,0,16.884-4.93,21.054-12.239c4.17,7.309,12.035,12.239,21.045,12.239c9.018,0,16.884-4.93,21.054-12.239
				c2.814,4.926,7.301,8.773,12.683,10.752c1.874-7.651,2.891-15.652,2.891-23.895C355.778,163.572,354.95,156.293,353.392,149.29z"
				/>
		</g>
	</g>
	<g>
		<g>
			<path fill-rule="evenodd" clip-rule="evenodd" fill="#F2295F" d="M328.748,102.772c-18.2-19.386-44.055-31.5-72.748-31.5
				c-2.288,0-4.562,0.079-6.819,0.23c-22.694,22.995-36.702,54.571-36.702,89.432c0,8.517,0.836,16.834,2.432,24.88
				c4.358,6.398,11.697,10.613,20.037,10.613c9.017,0,16.883-4.93,21.053-12.239c4.17,7.309,12.036,12.239,21.053,12.239
				c9.018,0,16.884-4.93,21.054-12.239c4.17,7.309,12.035,12.239,21.045,12.239c9.018,0,16.884-4.93,21.054-12.239
				c0.104,0.203,0.226,0.395,0.338,0.58c1.468-7.715,2.243-15.686,2.243-23.834C342.786,139.986,337.721,120.209,328.748,102.772z"
				/>
		</g>
	</g>
	<g>
		<g>
			<path fill-rule="evenodd" clip-rule="evenodd" fill="#D92949" d="M262.819,71.502c-2.25-0.151-4.531-0.23-6.819-0.23
				s-4.562,0.079-6.819,0.23c-22.694,22.995-36.702,54.571-36.702,89.432c0,8.517,0.836,16.834,2.432,24.88
				c4.358,6.398,11.697,10.613,20.037,10.613c9.017,0,16.883-4.93,21.053-12.239c4.17,7.309,12.036,12.239,21.053,12.239
				c8.34,0,15.679-4.215,20.037-10.613c1.596-8.046,2.438-16.364,2.438-24.88C299.528,126.073,285.514,94.497,262.819,71.502z"/>
		</g>
	</g>
	<g>
		<g>
			<path fill-rule="evenodd" clip-rule="evenodd" fill="#F2295F" d="M253.621,71.298c-1.49,0.038-2.965,0.105-4.44,0.2
				c-22.701,22.999-36.702,54.578-36.702,89.439c0,8.517,0.836,16.834,2.432,24.881c4.358,6.398,11.704,10.613,20.037,10.613
				c9.017,0,16.883-4.934,21.053-12.239c0.451,0.794,0.94,1.547,1.476,2.281c0.392-10.203,0.595-20.726,0.595-31.478
				C258.07,124.605,256.451,96.062,253.621,71.298z"/>
		</g>
	</g>
	<g>
		<g>
			<path fill-rule="evenodd" clip-rule="evenodd" fill="#D92949" d="M298.896,374.129h-85.793c-5.991,0-10.899,4.904-10.899,10.899
				v44.812c0,5.988,4.908,10.892,10.899,10.892h85.793c5.991,0,10.899-4.904,10.899-10.892v-44.812
				C309.796,379.033,304.888,374.129,298.896,374.129z"/>
		</g>
	</g>
	<g>
		<g>
			<path fill-rule="evenodd" clip-rule="evenodd" fill="#AF1E3E" d="M308.328,341.194H203.672c-3.628,0-6.578,2.966-6.578,6.583
				v27.086c0,3.621,2.95,6.59,6.578,6.59h104.656c3.628,0,6.586-2.969,6.586-6.59v-27.086
				C314.914,344.16,311.956,341.194,308.328,341.194z"/>
		</g>
	</g>
	<g>
		<g>
			<path fill-rule="evenodd" clip-rule="evenodd" fill="#F2295F" d="M255.45,329.463c-17.981-45.708-61.014-43.457-52.764-15.43
				c2.25,7.651,9.363,15.901,22.874,21.896c6.677,2.977,13.715,5.22,21.121,6.729l8.009,2.774l0.015,0.527l0.745-0.263l0.745,0.263
				l0.016-0.527l8.009-2.774c7.414-1.509,14.451-3.752,21.128-6.729c13.496-5.995,20.616-14.245,22.875-21.896
				C316.465,286.006,273.44,283.756,255.45,329.463z M241.142,331.707l-0.173-0.038c-4.494-0.911-8.875-2.292-13.067-4.155
				c-5.291-2.36-11.538-6.545-13.277-12.442c-0.737-2.51-1.031-5.773,0.993-7.791c3.199-3.199,9.289-1.456,12.698,0.376
				c8.694,4.67,15.95,15.069,15.679,25.035L241.142,331.707z M296.27,315.072c-1.731,5.897-7.971,10.083-13.271,12.442
				c-4.192,1.863-8.573,3.244-13.066,4.155l-0.173,0.038l-2.854,0.986c-0.271-9.966,6.985-20.365,15.679-25.035
				c3.41-1.833,9.5-3.575,12.698-0.376C297.309,309.299,297.015,312.562,296.27,315.072z"/>
		</g>
	</g>
	<g>
		<g>
			<rect x="242.459" y="341.194" fill-rule="evenodd" clip-rule="evenodd" fill="#F2295F" width="25.983" height="99.537"/>
		</g>
	</g>
	<g>
		<g>
			<rect x="242.459" y="341.194" fill-rule="evenodd" clip-rule="evenodd" fill="#AF1E3E" width="13.172" height="99.537"/>
		</g>
	</g>
</g>
</svg>
